<svg width="20" height="16" viewBox="0 0 20 16" fill="none" xmlns="http://www.w3.org/2000/svg">
<path d="M0 6.24173H2.93121C2.56256 6.73184 2.34375 7.34097 2.34375 8C2.34375 8.65887 2.56256 9.26785 2.93106 9.75781H0V15.6172H20V9.75781H18.2422C18.2219 9.75781 18.0873 9.69479 17.9376 9.39526C17.7588 9.0376 17.6562 8.52902 17.6562 8C17.6562 7.47098 17.7588 6.9624 17.9376 6.60474C18.0873 6.30521 18.2219 6.24219 18.2422 6.24219H20C20 5.6622 20 1.0481 20 0.382812H0V6.24173ZM3.51562 5.07031V1.55469H16.4844V5.07031C15.5254 5.07031 3.99796 5.07031 3.51562 5.07031ZM9.375 8.58594V11.5927L8.20312 10.8114L7.03125 11.5927V8.58594H9.375ZM8.20312 12.2198L10.5469 13.7823V10.9297H16.4844V14.4453H3.51562V10.9297H5.85938V13.7823L8.20312 12.2198ZM1.17188 10.9297H2.34375V14.4453H1.17188V10.9297ZM18.8281 10.9297V14.4453H17.6562V10.9297H18.8281ZM16.8152 9.75781H10.5469V8.58594H14.1406V7.41406H5.85968L5.85983 9.75781H5.27344C4.3042 9.75781 3.51562 8.96924 3.51562 8C3.51562 7.03076 4.3042 6.24173 5.27344 6.24173H16.8152C16.6013 6.73962 16.4844 7.35623 16.4844 8C16.4844 8.64377 16.6013 9.26007 16.8152 9.75781ZM18.8281 5.07031H17.6562V1.55469H18.8281V5.07031ZM1.17188 1.55469H2.34375V5.07031H1.17188V1.55469Z" fill="#6A75CA"/>
</svg>
