<svg width="54" height="32" viewBox="0 0 54 32" fill="none" xmlns="http://www.w3.org/2000/svg">
<g clip-path="url(#clip0)">
<path d="M0.116272 1.39755L2.34434 5.11878C2.49938 5.37871 2.78717 5.52855 3.08981 5.50913C5.757 5.33616 18.4013 4.80244 18.5675 10.2626C18.7104 14.9782 12.9277 15.9412 10.2874 16.1354C9.70068 16.1789 9.35718 16.8153 9.64312 17.3277L17.5936 31.5864C17.7356 31.8417 18.0058 31.9999 18.2992 31.9999H23.006C23.6298 31.9999 24.0179 31.3246 23.7022 30.7882L17.9965 21.1091C17.7635 20.7132 17.9083 20.2017 18.3168 19.9898C20.0853 19.0732 24.2639 16.2714 24.0448 10.3551C23.7728 3.04218 18.3706 -0.922319 0.758698 0.183043C0.156192 0.220967 -0.192872 0.881409 0.116272 1.39755Z" fill="#6A75CA"/>
<path d="M27.9553 13.03L30.4034 8.72513C30.6977 8.16274 31.5044 8.16089 31.8015 8.72143L37.4459 19.0064C37.7439 19.5697 38.5562 19.5651 38.8468 18.9971L48.007 1.16242C48.1704 0.843301 48.4999 0.642578 48.8592 0.642578H53.0405C53.7517 0.642578 54.2149 1.38719 53.8984 2.02174L39.4243 31.0331C39.0817 31.7194 38.1088 31.7435 37.7319 31.0766L27.9664 13.7793C27.8365 13.548 27.8318 13.2659 27.9553 13.03Z" fill="#6A75CA"/>
</g>
<defs>
<clipPath id="clip0">
<rect width="54" height="32" fill="white"/>
</clipPath>
</defs>
</svg>
