<svg width="24" height="41" viewBox="0 0 24 41" fill="none" xmlns="http://www.w3.org/2000/svg">
<path d="M14.7703 4.90671C6.64726 4.16825 6.46264 8.29133 7.38572 10.4452C6.15489 14.7528 6.09324 23.1834 15.6932 22.4449C27.6932 21.5219 19.3855 8.59878 21.2317 8.59878C23.0779 8.59878 25.8471 3.98369 21.2317 1.21446C17.5394 -1.00093 15.3857 2.75288 14.7703 4.90671Z" fill="#171453"/>
<path d="M0.922852 37.214C4.30747 33.8294 13.6613 28.9064 23.9998 36.291C20.3075 39.368 10.5229 43.8603 0.922852 37.214Z" fill="#5C58E4"/>
<path d="M9.23064 23.6146C1.84563 22.4446 3.69183 10.6916 7.38429 9.52148C14.7689 10.2599 15.9997 18.4446 15.692 22.4446L16.6151 32.5984C17.2305 32.5984 17.169 33.5215 11.9997 37.2138C6.8305 40.9061 6.76892 35.6753 7.38429 32.5984L9.23064 23.6146Z" fill="#D47065"/>
</svg>
