<svg width="16" height="16" viewBox="0 0 16 16" fill="none" xmlns="http://www.w3.org/2000/svg">
<path d="M12.7595 3.07812L11.7394 14.7023H4.26092L3.24104 3.07812L1.94873 3.19141L2.98723 15.0264C3.04189 15.5719 3.5152 15.9996 4.06504 15.9996H11.9353C12.4849 15.9996 12.9584 15.5721 13.014 15.0186L14.0519 3.19141L12.7595 3.07812Z" fill="#1A2323"/>
<path d="M10.3784 0H5.62162C5.0255 0 4.54053 0.484969 4.54053 1.08109V3.13516H5.83781V1.29728H10.1621V3.13512H11.4594V1.08106C11.4595 0.484969 10.9745 0 10.3784 0Z" fill="#1A2323"/>
<path d="M14.9191 2.48633H1.08127C0.722992 2.48633 0.432617 2.7767 0.432617 3.13498C0.432617 3.49327 0.722992 3.78364 1.08127 3.78364H14.9191C15.2774 3.78364 15.5678 3.49327 15.5678 3.13498C15.5678 2.7767 15.2774 2.48633 14.9191 2.48633Z" fill="#1A2323"/>
</svg>
