<svg width="16" height="16" viewBox="0 0 16 16" fill="none" xmlns="http://www.w3.org/2000/svg">
<g clip-path="url(#clip0)">
<path d="M15.8128 3.48481L12.5149 0.186993C12.2656 -0.0621641 11.8622 -0.0623516 11.6128 0.186555L1.22998 10.5484C1.14635 10.6318 1.08742 10.7369 1.05998 10.8518L0.0174457 15.2134C-0.0340544 15.4289 0.030227 15.6561 0.187009 15.813C0.308071 15.934 0.47104 16 0.638291 16C0.687853 16 0.737666 15.994 0.786572 15.9823L5.14824 14.9398C5.26314 14.9124 5.36824 14.8536 5.45164 14.7698L15.8132 4.38694C16.0621 4.13759 16.0619 3.73375 15.8128 3.48481ZM4.67589 13.7402L1.50082 14.4992L2.25954 11.3241L12.0635 1.54059L14.4594 3.93653L4.67589 13.7402Z" fill="#1A2323"/>
<path d="M10.068 2.61215L9.16553 3.51465L12.4843 6.83342L13.3868 5.93092L10.068 2.61215Z" fill="#1A2323"/>
<path d="M10.8247 4.27198L2.84668 12.25L3.74918 13.1525L11.7272 5.17448L10.8247 4.27198Z" fill="#1A2323"/>
<path d="M2.111 10.5916L1.2085 11.4941L4.50622 14.7919L5.40872 13.8894L2.111 10.5916Z" fill="#1A2323"/>
</g>
<defs>
<clipPath id="clip0">
<rect width="16" height="16" fill="white"/>
</clipPath>
</defs>
</svg>
