<svg width="44" height="44" viewBox="0 0 44 44" fill="none" xmlns="http://www.w3.org/2000/svg">
<path d="M17.1826 29.4589C18.038 28.5382 18.5625 27.306 18.5625 25.9531C18.5625 23.11 16.2494 20.7969 13.4062 20.7969C10.5631 20.7969 8.25 23.11 8.25 25.9531C8.25 27.306 8.77448 28.5382 9.6299 29.4589C7.02427 30.8242 5.24219 33.5554 5.24219 36.6953V37.5547C5.24219 38.2666 5.81934 38.8438 6.53125 38.8438H20.2812C20.9932 38.8438 21.5703 38.2666 21.5703 37.5547V36.6953C21.5703 33.5554 19.7882 30.8242 17.1826 29.4589ZM10.8281 25.9531C10.8281 24.5315 11.9847 23.375 13.4062 23.375C14.8278 23.375 15.9844 24.5315 15.9844 25.9531C15.9844 27.3747 14.8278 28.5312 13.4062 28.5312C11.9847 28.5312 10.8281 27.3747 10.8281 25.9531ZM7.83673 36.2656C8.0569 33.3855 10.4707 31.1094 13.4063 31.1094C16.342 31.1094 18.7558 33.3855 18.9759 36.2656H7.83673Z" fill="#6A75CA"/>
<path d="M26.2969 26.8125C27.0088 26.8125 27.5859 26.2354 27.5859 25.5234C27.5859 24.8115 27.0088 24.2344 26.2969 24.2344C25.5849 24.2344 25.0078 24.8115 25.0078 25.5234C25.0078 26.2354 25.5849 26.8125 26.2969 26.8125Z" fill="#6A75CA"/>
<path d="M31.4531 26.8125C32.1651 26.8125 32.7422 26.2354 32.7422 25.5234C32.7422 24.8115 32.1651 24.2344 31.4531 24.2344C30.7412 24.2344 30.1641 24.8115 30.1641 25.5234C30.1641 26.2354 30.7412 26.8125 31.4531 26.8125Z" fill="#6A75CA"/>
<path d="M36.6094 26.8125C37.3213 26.8125 37.8984 26.2354 37.8984 25.5234C37.8984 24.8115 37.3213 24.2344 36.6094 24.2344C35.8974 24.2344 35.3203 24.8115 35.3203 25.5234C35.3203 26.2354 35.8974 26.8125 36.6094 26.8125Z" fill="#6A75CA"/>
<path d="M37.4688 29.3906H25.4375C24.7256 29.3906 24.1484 29.9678 24.1484 30.6797C24.1484 31.3916 24.7256 31.9688 25.4375 31.9688H37.4688C38.1807 31.9688 38.7578 31.3916 38.7578 30.6797C38.7578 29.9678 38.1807 29.3906 37.4688 29.3906Z" fill="#6A75CA"/>
<path d="M37.4688 34.5469H25.4375C24.7256 34.5469 24.1484 35.124 24.1484 35.8359C24.1484 36.5478 24.7256 37.125 25.4375 37.125H37.4688C38.1807 37.125 38.7578 36.5478 38.7578 35.8359C38.7578 35.124 38.1807 34.5469 37.4688 34.5469Z" fill="#6A75CA"/>
<path d="M39.2734 13.9209H26.6783L27.1409 10.6828C33.38 9.62381 39.0317 6.70443 43.5365 2.19958C44.0399 1.69616 44.0399 0.880012 43.5365 0.37659C43.0331 -0.126832 42.2169 -0.126832 41.7135 0.37659C37.7877 4.30239 32.9112 6.91377 27.5253 7.9916L27.573 7.6579C27.6257 7.28803 27.5155 6.91334 27.2706 6.63104C27.0259 6.34873 26.6706 6.18657 26.2969 6.18657H17.7031C17.3294 6.18657 16.9742 6.34873 16.7293 6.63104C16.4844 6.91334 16.3742 7.28803 16.427 7.6579L16.4746 7.9916C11.0888 6.91386 6.21234 4.30247 2.28654 0.376676C1.7832 -0.126746 0.966969 -0.126746 0.463547 0.376676C-0.039875 0.880012 -0.039875 1.69625 0.463547 2.19967C4.9683 6.70451 10.6201 9.6239 16.8591 10.6829L17.3217 13.921H4.72656C2.12034 13.921 0 16.0414 0 18.6476V39.2726C0 41.8788 2.12034 43.9992 4.72656 43.9992H39.2734C41.8797 43.9992 44 41.8788 44 39.2726V18.6475C44 16.0413 41.8797 13.9209 39.2734 13.9209ZM24.8106 8.76469L23.4601 18.2178H20.5399L19.1894 8.76469H24.8106ZM41.4219 39.2725C41.4219 40.4572 40.4581 41.4209 39.2734 41.4209H4.72656C3.54191 41.4209 2.57812 40.4572 2.57812 39.2725V18.6475C2.57812 17.4629 3.54191 16.4991 4.72656 16.4991H17.69L18.1457 19.6892C18.2365 20.3242 18.7804 20.7959 19.4219 20.7959H24.5781C25.2196 20.7959 25.7635 20.3242 25.8543 19.6892L26.31 16.4991H39.2734C40.4581 16.4991 41.4219 17.4629 41.4219 18.6475V39.2725Z" fill="#6A75CA"/>
</svg>
