<svg width="18" height="20" viewBox="0 0 18 20" fill="none" xmlns="http://www.w3.org/2000/svg">
<path d="M2.55469 0C1.58545 0 0.796875 0.788574 0.796875 1.75781V18.2422C0.796875 19.2114 1.58545 20 2.55469 20H17.2031V2.34375H16.0312V0H2.55469ZM2.55469 1.17188H14.8594V2.34375C14.1569 2.34375 3.04022 2.34375 2.55469 2.34375C2.23166 2.34375 1.96875 2.08084 1.96875 1.75781C1.96875 1.43478 2.23166 1.17188 2.55469 1.17188ZM1.96875 18.2422V3.41492C2.15216 3.47992 2.3493 3.51562 2.55469 3.51562H3.14062V18.8281H2.55469C2.23166 18.8281 1.96875 18.5652 1.96875 18.2422ZM16.0312 18.8281H4.3125V3.51562H16.0312V18.8281Z" fill="#6A75CA"/>
</svg>
