<svg width="18" height="18" viewBox="0 0 18 18" fill="none" xmlns="http://www.w3.org/2000/svg">
<g clip-path="url(#clip0)">
<path d="M17.7984 5.75091L13.2529 1.22805C13.0565 1.03251 12.7618 0.974497 12.5064 1.08095C12.2506 1.18716 12.0841 1.43684 12.0841 1.7137V3.76679C9.83064 3.91572 8.70539 4.85 8.50208 5.03615C5.67438 7.38962 5.98709 10.5988 6.08212 11.2373C6.08349 11.2464 6.08486 11.2558 6.08645 11.2649L6.17782 11.7903C6.22693 12.0726 6.44599 12.2944 6.72742 12.3467C6.76943 12.3545 6.81148 12.3584 6.85307 12.3584C7.09086 12.3584 7.31541 12.2346 7.44056 12.0256L7.71443 11.5692C9.21153 9.07931 11.0616 8.67842 12.084 8.67498V10.8051C12.084 11.0826 12.2515 11.3325 12.5082 11.4385C12.765 11.5442 13.0599 11.4849 13.2554 11.2884L17.8009 6.7199C18.0677 6.45172 18.0666 6.01772 17.7984 5.75091ZM13.4549 9.14463V8.04111C13.4549 7.70463 13.2109 7.41796 12.8788 7.36452C12.088 7.23729 9.59899 7.08401 7.44949 9.59259C7.58815 8.56877 8.04684 7.19275 9.39181 6.07913C9.40827 6.06542 9.41396 6.06085 9.42905 6.04577C9.4391 6.03642 10.4611 5.11722 12.7008 5.11722H12.7693C13.1478 5.11722 13.4546 4.81045 13.4546 4.43195V3.36225L16.346 6.23885L13.4549 9.14463Z" fill="#1A2323"/>
<path d="M15.3046 12.9751C14.9261 12.9751 14.6194 13.2818 14.6194 13.6603V15.602H1.37057V5.5512H5.48225C5.86075 5.5512 6.16752 5.24443 6.16752 4.86593C6.16752 4.48744 5.86075 4.18066 5.48225 4.18066H0.685268C0.306775 4.18063 0 4.4874 0 4.8659V16.2873C0 16.6658 0.306775 16.9725 0.685268 16.9725H15.3046C15.6831 16.9725 15.9899 16.6658 15.9899 16.2873V13.6603C15.9899 13.2818 15.6831 12.9751 15.3046 12.9751Z" fill="#1A2323"/>
</g>
<defs>
<clipPath id="clip0">
<rect width="18" height="18" fill="white"/>
</clipPath>
</defs>
</svg>
