<svg width="44" height="48" viewBox="0 0 44 48" fill="none" xmlns="http://www.w3.org/2000/svg">
<path d="M7.36621 7.56632L21.6762 2.38521C22.0062 2.26576 22.3678 2.26724 22.6968 2.38939L36.6378 7.56632L31.2652 9.17615C27.8069 8.22217 19.2601 6.88661 12.7388 9.17615L7.36621 7.56632ZM7.36621 7.56632V14.6988" stroke="#6A75CA" stroke-width="2.2" stroke-linejoin="round"/>
<path d="M6.61465 14.4229C6.61465 14.0073 6.95161 13.6703 7.36728 13.6703C7.78295 13.6703 8.11991 14.0073 8.11991 14.4229V14.69H6.61465V14.4229Z" stroke="#6A75CA" stroke-width="2.2"/>
<path d="M4.79686 19.7159L5.32953 17.2914C5.54483 16.3114 6.41299 15.6133 7.41631 15.6133C8.37262 15.6133 9.21245 16.2487 9.47241 17.169L10.1679 19.631C10.435 20.5768 9.72439 21.516 8.74156 21.516H6.24444C5.29773 21.516 4.59371 20.6405 4.79686 19.7159Z" stroke="#6A75CA" stroke-width="2.2"/>
<path d="M12.7373 9.17383V11.448C12.7373 12.2666 13.4009 12.9301 14.2194 12.9301H29.7815C30.6001 12.9301 31.2636 12.2666 31.2636 11.448V9.17383" stroke="#6A75CA" stroke-width="2.2"/>
<path d="M14.1918 12.9316C13.3871 14.2867 13.2939 15.8789 13.2939 17.5823C13.2939 22.5217 17.1924 26.5258 22.0013 26.5258C26.8103 26.5258 30.7087 22.5217 30.7087 17.5823C30.7087 15.8789 30.6156 14.2867 29.8109 12.9316" stroke="#6A75CA" stroke-width="2.2"/>
<path d="M17.739 25.4531C17.6155 27.3611 18.2947 32.3218 22 36.9008C23.4821 35.4699 26.4093 31.177 26.2611 25.4531" stroke="#6A75CA" stroke-width="2.2"/>
<path d="M18.667 30.8174C19.5316 31.1155 22.1129 31.5329 25.5217 30.8174" stroke="#6A75CA" stroke-width="2.2"/>
<path d="M17.7419 26.5273L11.8135 30.8202L22.003 37.0807L32.0072 30.8202L26.264 26.5273" stroke="#6A75CA" stroke-width="2.2"/>
<path d="M32.0056 30.8174H32.1908C36.2836 30.8174 39.6014 34.1352 39.6014 38.2279V43.9771C39.6014 45.2049 38.606 46.2003 37.3782 46.2003H6.62453C5.39671 46.2003 4.40137 45.2049 4.40137 43.9771V38.2279C4.40137 34.1352 7.71917 30.8174 11.8119 30.8174V30.8174" stroke="#6A75CA" stroke-width="2.2"/>
</svg>
