<svg width="20" height="22" viewBox="0 0 20 22" fill="none" xmlns="http://www.w3.org/2000/svg">
<path d="M3.34766 3.43915L9.85222 1.0841C10.0022 1.0298 10.1666 1.03047 10.3161 1.086L16.6529 3.43915L14.2108 4.17089C12.6389 3.73726 8.75397 3.13019 5.78976 4.17089L3.34766 3.43915ZM3.34766 3.43915V6.68118" stroke="#6A75CA" stroke-linejoin="round"/>
<path d="M3.00586 6.55695C3.00586 6.36801 3.15903 6.21484 3.34796 6.21484C3.5369 6.21484 3.69007 6.36801 3.69007 6.55695V6.67833H3.00586V6.55695Z" stroke="#6A75CA"/>
<path d="M2.17977 8.96052L2.42189 7.85847C2.51976 7.41304 2.91437 7.0957 3.37043 7.0957C3.80511 7.0957 4.18686 7.38455 4.30502 7.80287L4.62113 8.92195C4.74257 9.35187 4.41956 9.77876 3.97281 9.77876H2.83776C2.40744 9.77876 2.08743 9.38082 2.17977 8.96052Z" stroke="#6A75CA"/>
<path d="M5.78906 4.16992V5.20364C5.78906 5.5757 6.09068 5.87732 6.46275 5.87732H13.5364C13.9085 5.87732 14.2101 5.5757 14.2101 5.20364V4.16992" stroke="#6A75CA"/>
<path d="M6.4501 5.87891C6.08431 6.49485 6.04199 7.21856 6.04199 7.99283C6.04199 10.238 7.814 12.0581 9.99989 12.0581C12.1858 12.0581 13.9578 10.238 13.9578 7.99283C13.9578 7.21856 13.9155 6.49485 13.5497 5.87891" stroke="#6A75CA"/>
<path d="M8.06272 11.5703C8.00658 12.4376 8.31535 14.6924 9.99956 16.7738C10.6732 16.1234 12.0038 14.1721 11.9364 11.5703" stroke="#6A75CA"/>
<path d="M8.48438 14.0078C8.87736 14.1433 10.0507 14.333 11.6002 14.0078" stroke="#6A75CA"/>
<path d="M8.06388 12.0586L5.36914 14.0099L10.0007 16.8556L14.5481 14.0099L11.9376 12.0586" stroke="#6A75CA"/>
<path d="M14.5474 14.0078H14.6316C16.4919 14.0078 18 15.5159 18 17.3762V19.9895C18 20.5476 17.5476 21 16.9895 21H3.01053C2.45243 21 2 20.5476 2 19.9895V17.3762C2 15.5159 3.50809 14.0078 5.36842 14.0078V14.0078" stroke="#6A75CA"/>
</svg>
