<svg width="20" height="20" viewBox="0 0 20 20" fill="none" xmlns="http://www.w3.org/2000/svg">
<path d="M16.875 0.15625H4.375C3.91931 0.156757 3.48244 0.338001 3.16022 0.66022C2.838 0.982438 2.65676 1.41931 2.65625 1.875V17.5C2.65676 17.9557 2.838 18.3926 3.16022 18.7148C3.48244 19.037 3.91931 19.2182 4.375 19.2188H11.7188V19.375C11.707 19.7379 12.152 19.9759 12.4475 19.765L13.125 19.3134L13.8025 19.765C14.0984 19.9759 14.5427 19.7377 14.5312 19.375V19.2188H16.875C16.9993 19.2188 17.1185 19.1694 17.2065 19.0815C17.2944 18.9935 17.3438 18.8743 17.3438 18.75V0.625C17.3438 0.50068 17.2944 0.381451 17.2065 0.293544C17.1185 0.205636 16.9993 0.15625 16.875 0.15625ZM4.375 1.09375H16.4062V15.7812H4.375C4.10339 15.7809 3.8356 15.8451 3.59375 15.9688V1.875C3.59399 1.66787 3.67637 1.4693 3.82284 1.32284C3.9693 1.17637 4.16787 1.09399 4.375 1.09375ZM4.375 18.2812C4.16787 18.281 3.9693 18.1986 3.82284 18.0522C3.67637 17.9057 3.59399 17.7071 3.59375 17.5C3.58508 17.0798 3.9548 16.7101 4.375 16.7188H11.7188V18.2812H4.375ZM13.125 18.2812C13.0325 18.2812 12.942 18.3086 12.865 18.36L12.6562 18.4991V16.7188H13.5938V18.4991L13.385 18.36C13.308 18.3086 13.2175 18.2812 13.125 18.2812ZM16.4062 18.2812H14.5312V16.7188H16.4062V18.2812Z" fill="#6A75CA"/>
<path d="M10.0003 12.1627C10.4425 12.1627 10.8711 12.0094 11.2129 11.7289C11.5548 11.4483 11.7888 11.0579 11.875 10.6242C11.9613 10.1905 11.8945 9.74026 11.6861 9.35025C11.4776 8.96024 11.1404 8.65458 10.7318 8.48535C10.3232 8.31611 9.86864 8.29378 9.44546 8.42215C9.02227 8.55052 8.65669 8.82165 8.41101 9.18935C8.16532 9.55704 8.05473 9.99855 8.09807 10.4386C8.14142 10.8787 8.33602 11.2902 8.64873 11.6029C8.82581 11.7809 9.03644 11.9221 9.26844 12.0182C9.50043 12.1143 9.74918 12.1634 10.0003 12.1627ZM9.31158 9.56258C9.47088 9.40322 9.68052 9.30403 9.90476 9.28191C10.129 9.25979 10.354 9.31611 10.5413 9.44127C10.7287 9.56643 10.8669 9.75268 10.9323 9.9683C10.9978 10.1839 10.9864 10.4155 10.9002 10.6237C10.814 10.8319 10.6583 11.0038 10.4596 11.11C10.2609 11.2163 10.0315 11.2503 9.81049 11.2064C9.58949 11.1625 9.39055 11.0433 9.24758 10.8691C9.10461 10.695 9.02645 10.4766 9.02642 10.2513C9.02624 10.1234 9.05134 9.99667 9.10027 9.87848C9.14921 9.76029 9.22102 9.65293 9.31158 9.56258Z" fill="#6A75CA"/>
<path d="M5.94103 11.5125L6.43924 11.5742L6.54682 11.8339L6.23822 12.2298C6.16791 12.3199 6.13298 12.4327 6.14002 12.5468C6.14706 12.661 6.19557 12.7686 6.27642 12.8495L7.40201 13.9751C7.48287 14.056 7.59051 14.1045 7.70465 14.1115C7.81879 14.1185 7.93156 14.0836 8.02173 14.0133L8.41759 13.7047L8.67732 13.8123L8.73896 14.3105C8.75301 14.424 8.80805 14.5284 8.89373 14.6041C8.9794 14.6798 9.08981 14.7216 9.20416 14.7216H10.796C10.9104 14.7216 11.0208 14.6798 11.1065 14.6041C11.1921 14.5284 11.2472 14.424 11.2612 14.3105L11.3229 13.8123L11.5826 13.7047L11.9784 14.0133C12.0686 14.0836 12.1814 14.1185 12.2955 14.1115C12.4097 14.1045 12.5173 14.056 12.5982 13.9751L13.7238 12.8495C13.8046 12.7686 13.8531 12.661 13.8602 12.5468C13.8672 12.4327 13.8323 12.3199 13.762 12.2298L13.4534 11.8339L13.5609 11.5742L14.0591 11.5125C14.1726 11.4985 14.2771 11.4435 14.3528 11.3578C14.4286 11.2721 14.4704 11.1617 14.4704 11.0473V9.45551C14.4704 9.34115 14.4286 9.23073 14.3528 9.14504C14.2771 9.05936 14.1726 9.00431 14.0591 8.99027L13.5609 8.92863L13.4534 8.66891L13.762 8.27305C13.8323 8.18287 13.8672 8.0701 13.8602 7.95597C13.8531 7.84184 13.8046 7.73422 13.7238 7.65336L12.5982 6.5277C12.5173 6.44683 12.4097 6.39832 12.2955 6.39129C12.1814 6.38427 12.0686 6.4192 11.9784 6.48953L11.5826 6.79812L11.3229 6.69055L11.2612 6.19234C11.2472 6.07886 11.1921 5.97444 11.1064 5.89872C11.0207 5.82301 10.9103 5.78123 10.7959 5.78125H9.20408C9.08973 5.78125 8.97933 5.82305 8.89365 5.89878C8.80797 5.97451 8.75293 6.07894 8.73888 6.19242L8.67724 6.69062L8.41752 6.7982L8.02166 6.48961C7.93148 6.41928 7.81871 6.38434 7.70457 6.39137C7.59043 6.3984 7.48279 6.44691 7.40193 6.52777L6.27635 7.65344C6.19549 7.73429 6.14698 7.84192 6.13994 7.95605C6.13291 8.07018 6.16783 8.18295 6.23814 8.27313L6.54674 8.66898L6.43916 8.92871L5.94096 8.99035C5.82747 9.0044 5.72303 9.05945 5.6473 9.14513C5.57157 9.23082 5.52978 9.34123 5.52979 9.45559V11.0474C5.52981 11.1618 5.57163 11.2722 5.64737 11.3578C5.72311 11.4435 5.82755 11.4985 5.94103 11.5125ZM6.46736 9.8698L6.82537 9.82551C6.90764 9.81533 6.98575 9.78351 7.05171 9.7333C7.11768 9.68309 7.16915 9.61628 7.20088 9.53969L7.51728 8.77535C7.549 8.69877 7.55984 8.61514 7.54871 8.533C7.53757 8.45086 7.50485 8.37315 7.45388 8.30777L7.23209 8.02328L7.77189 7.48359L8.05638 7.70543C8.12176 7.75641 8.19948 7.78914 8.28163 7.80028C8.36377 7.81143 8.44741 7.80059 8.524 7.76887L9.2883 7.45227C9.36489 7.42054 9.43169 7.36907 9.48191 7.3031C9.53212 7.23714 9.56394 7.15903 9.57412 7.07676L9.61841 6.71875H10.3817L10.4259 7.07676C10.4361 7.15903 10.4679 7.23714 10.5181 7.3031C10.5683 7.36907 10.6351 7.42054 10.7117 7.45227L11.476 7.76887C11.5526 7.80057 11.6362 7.8114 11.7184 7.80026C11.8005 7.78912 11.8783 7.75639 11.9436 7.70543L12.2281 7.48359L12.7678 8.02344L12.546 8.30793C12.495 8.3733 12.4623 8.45101 12.4511 8.53315C12.44 8.61529 12.4508 8.69892 12.4825 8.77551L12.799 9.53984C12.8307 9.61644 12.8822 9.68325 12.9481 9.73346C13.0141 9.78368 13.0922 9.81549 13.1745 9.82566L13.5325 9.86996V10.6332L13.1745 10.6775C13.0922 10.6876 13.0141 10.7194 12.9481 10.7697C12.8822 10.8199 12.8307 10.8867 12.799 10.9633L12.4825 11.7276C12.4508 11.8042 12.44 11.8878 12.4511 11.97C12.4623 12.0521 12.495 12.1298 12.546 12.1952L12.7678 12.4797L12.2281 13.0192L11.9436 12.7974C11.8783 12.7464 11.8005 12.7137 11.7184 12.7026C11.6362 12.6914 11.5526 12.7022 11.476 12.7339L10.7117 13.0505C10.6351 13.0823 10.5683 13.1337 10.5181 13.1997C10.4679 13.2657 10.4361 13.3438 10.4259 13.4261L10.3817 13.7841H9.61837L9.57412 13.4261C9.56394 13.3438 9.53212 13.2657 9.48191 13.1997C9.43169 13.1337 9.36489 13.0823 9.2883 13.0505L8.524 12.7339C8.44741 12.7022 8.36377 12.6914 8.28163 12.7025C8.19948 12.7137 8.12176 12.7464 8.05638 12.7974L7.77189 13.0192L7.23224 12.4795L7.45404 12.195C7.50501 12.1297 7.53773 12.0519 7.54886 11.9698C7.56 11.8877 7.54916 11.804 7.51744 11.7275L7.20103 10.9631C7.16931 10.8865 7.11784 10.8197 7.05187 10.7695C6.9859 10.7193 6.9078 10.6875 6.82553 10.6773L6.46752 10.633L6.46736 9.8698Z" fill="#6A75CA"/>
<path d="M8.80556 4.35614C8.7177 4.44411 8.66838 4.56339 8.66846 4.68772C8.66853 4.81206 8.718 4.93127 8.80597 5.01913C8.89394 5.107 9.01322 5.15631 9.13755 5.15624C9.26188 5.15616 9.38109 5.10669 9.46896 5.01872C9.54131 4.94623 9.62726 4.88873 9.72186 4.84949C9.81647 4.81025 9.91788 4.79006 10.0203 4.79006C10.1227 4.79006 10.2241 4.81025 10.3187 4.84949C10.4134 4.88873 10.4993 4.94623 10.5717 5.01872C10.6602 5.10348 10.7783 5.15021 10.9009 5.1489C11.0234 5.14759 11.1406 5.09835 11.2272 5.01172C11.3139 4.92509 11.3632 4.80797 11.3646 4.68543C11.366 4.56289 11.3193 4.44469 11.2346 4.35614C11.0752 4.19649 10.8858 4.06984 10.6774 3.98343C10.469 3.89702 10.2456 3.85254 10.02 3.85254C9.79438 3.85254 9.57098 3.89702 9.36257 3.98343C9.15416 4.06984 8.96483 4.19649 8.8054 4.35614H8.80556Z" fill="#6A75CA"/>
<path d="M7.81256 3.83037C7.87416 3.83045 7.93518 3.81835 7.99209 3.79475C8.049 3.77116 8.10068 3.73655 8.14416 3.69291C8.39036 3.44632 8.68275 3.2507 9.00463 3.11723C9.3265 2.98376 9.67153 2.91506 10.02 2.91506C10.3684 2.91506 10.7135 2.98376 11.0353 3.11723C11.3572 3.2507 11.6496 3.44632 11.8958 3.69291C11.9837 3.78086 12.1029 3.8303 12.2272 3.83036C12.3515 3.83042 12.4708 3.78109 12.5587 3.69322C12.6467 3.60535 12.6961 3.48614 12.6962 3.36182C12.6962 3.23749 12.6469 3.11824 12.559 3.03029C12.2258 2.69656 11.83 2.4318 11.3943 2.25116C10.9586 2.07052 10.4916 1.97754 10.02 1.97754C9.54834 1.97754 9.08132 2.07052 8.64565 2.25116C8.20997 2.4318 7.81418 2.69656 7.48092 3.03029C7.41539 3.09586 7.37078 3.17939 7.35273 3.27031C7.33467 3.36124 7.34398 3.45547 7.37948 3.54111C7.41497 3.62674 7.47506 3.69993 7.55215 3.75142C7.62924 3.8029 7.71986 3.83038 7.81256 3.83037Z" fill="#6A75CA"/>
</svg>
