<svg width="44" height="44" viewBox="0 0 44 44" fill="none" xmlns="http://www.w3.org/2000/svg">
<path d="M42.711 39.7039H41.336V35.8367C41.336 35.1248 40.7588 34.5476 40.0469 34.5476H39.5537C38.997 29.6224 34.8061 25.7821 29.7345 25.7821H26.7267V24.2712C28.1521 23.2556 29.2384 21.7937 29.7808 20.0913C32.6378 18.6847 34.461 15.7797 34.461 12.5687V12.4618C34.461 12.2352 34.4546 12.0097 34.4426 11.7853C36.9454 11.0475 38.7579 8.72788 38.7579 6.01657C38.7579 2.69957 36.0593 0.000976562 32.7423 0.000976562C31.0991 0.000976562 29.57 0.654871 28.4528 1.79629C26.455 0.581825 24.1503 -0.0435388 21.745 0.00355467C18.4601 0.0693824 15.3851 1.41541 13.0862 3.79355C10.7989 6.15974 9.53928 9.27624 9.53928 12.5688C9.53928 15.7798 11.3626 18.6848 14.2195 20.0913C14.7618 21.7937 15.8482 23.2556 17.2736 24.2712V25.7821H12.5471C10.6972 25.7821 8.92406 26.2864 7.37006 27.2464C7.01093 27.0931 6.63436 26.9904 6.2491 26.9405L2.55879 6.01227C2.43522 5.31128 1.76688 4.84318 1.06547 4.96659C0.364392 5.09017 -0.103793 5.75876 0.0197842 6.45992L3.71001 27.3882C3.10243 27.7029 2.57546 28.1612 2.17173 28.7377C1.51346 29.6779 1.26063 30.8182 1.45992 31.9484L1.74669 33.5746C1.87774 34.3179 2.19571 34.9971 2.66432 35.5631V39.7039H1.28933C0.577429 39.7039 0.000276519 40.281 0.000276519 40.9929C0.000276519 41.7048 0.577429 42.282 1.28933 42.282H17.8508C19.0738 42.282 20.2237 42.7583 21.0887 43.6231C21.0896 43.6241 21.0907 43.6243 21.0916 43.6252C21.2086 43.7415 21.3484 43.8369 21.5069 43.9026C21.6663 43.9687 21.8339 44.0007 21.9999 44.0007C22.3353 44.0007 22.665 43.8698 22.9116 43.6231C23.7765 42.7583 24.9264 42.282 26.1495 42.282H42.711C43.4229 42.282 44 41.7048 44 40.9929C44 40.281 43.4229 39.7039 42.711 39.7039ZM32.7423 2.57909C34.6377 2.57909 36.1798 4.12114 36.1798 6.01657C36.1798 7.44853 35.2952 8.68929 34.0325 9.20174C33.4623 7.08141 32.3351 5.14327 30.7221 3.56229C30.6596 3.50102 30.5962 3.44095 30.5327 3.38114C31.142 2.86801 31.917 2.57909 32.7423 2.57909ZM15.1252 12.0322C14.4133 12.0322 13.8361 12.6093 13.8361 13.3212V16.6946C12.7561 15.6242 12.1174 14.1501 12.1174 12.5687C12.1174 7.16847 16.4594 2.68797 21.7967 2.58106C24.4745 2.52761 27.0058 3.52972 28.9175 5.40349C30.8297 7.27795 31.8829 9.78447 31.8829 12.4618V12.5687C31.8829 14.15 31.2443 15.6241 30.1642 16.6945V13.3212C30.1642 12.6093 29.587 12.0322 28.8751 12.0322H27.5622C25.6831 12.0322 23.9936 10.988 23.1531 9.30727C22.9347 8.87053 22.4884 8.59468 22.0001 8.59468C21.5119 8.59468 21.0656 8.87053 20.8472 9.30727C20.0068 10.988 18.3173 12.0322 16.4381 12.0322H15.1252ZM16.4142 17.6181V14.6103H16.4381C18.6019 14.6103 20.6007 13.7012 22.0001 12.1515C23.3996 13.7012 25.3984 14.6103 27.5622 14.6103H27.5861V17.6181C27.5861 20.6981 25.0802 23.204 22.0001 23.204C18.9201 23.204 16.4142 20.6981 16.4142 17.6181ZM25.4376 28.3602H25.6465C25.1145 29.8607 23.6808 30.9383 22.0001 30.9383C20.3195 30.9383 18.8859 29.8607 18.3538 28.3602H18.5627C19.2746 28.3602 19.8517 27.783 19.8517 27.0711V25.4946C20.5366 25.6816 21.2568 25.7821 22.0001 25.7821C22.7435 25.7821 23.4637 25.6816 24.1486 25.4946V27.0711C24.1486 27.7831 24.7257 28.3602 25.4376 28.3602ZM4.2857 33.1269L3.99893 31.5008C3.91918 31.0486 4.02032 30.5926 4.28355 30.2165C4.54686 29.8404 4.94088 29.5894 5.393 29.5097C5.49389 29.4919 5.59486 29.483 5.69515 29.483C6.04448 29.483 6.38514 29.5897 6.67732 29.7943C7.05347 30.0576 7.30441 30.4516 7.38416 30.9037L7.67093 32.5299C7.8355 33.4632 7.21005 34.3564 6.27677 34.521C5.82457 34.6008 5.36859 34.4997 4.99253 34.2364C4.61638 33.9731 4.36545 33.5791 4.2857 33.1269ZM20.7111 40.2961C19.8207 39.9079 18.8512 39.7039 17.8508 39.7039H5.24243V37.1258H18.5627C19.7473 37.1258 20.7111 38.0895 20.7111 39.2742V40.2961ZM22.0001 36.0352C21.1377 35.1204 19.9162 34.5476 18.5627 34.5476H9.91414C10.2429 33.798 10.3624 32.9472 10.2099 32.0823L9.92308 30.4561C9.83525 29.9578 9.66389 29.4879 9.4194 29.0615C10.3889 28.6003 11.4496 28.3601 12.547 28.3601H15.6845C16.2833 31.2985 18.8874 33.5163 22.0001 33.5163C25.1127 33.5163 27.7168 31.2985 28.3157 28.3601H29.7344C33.3824 28.3601 36.4143 31.0482 36.9536 34.5476H25.4376C24.0841 34.5476 22.8626 35.1204 22.0001 36.0352ZM38.7579 39.7039H26.1495C25.149 39.7039 24.1796 39.9079 23.2892 40.2961V39.2742C23.2892 38.0895 24.253 37.1258 25.4376 37.1258H38.7579V39.7039Z" fill="#6A75CA"/>
</svg>
