<svg width="212" height="234" viewBox="0 0 212 234" fill="none" xmlns="http://www.w3.org/2000/svg">
<rect opacity="0.08" x="0.5" y="0.5" width="211" height="233" rx="4.5" stroke="#00071A"/>
<path d="M87.344 16.208C87.344 15.664 87.4667 15.176 87.712 14.744C87.9573 14.3067 88.2907 13.9653 88.712 13.72C89.1387 13.4747 89.6107 13.352 90.128 13.352C90.736 13.352 91.2667 13.4987 91.72 13.792C92.1733 14.0853 92.504 14.5013 92.712 15.04H91.84C91.6853 14.704 91.4613 14.4453 91.168 14.264C90.88 14.0827 90.5333 13.992 90.128 13.992C89.7387 13.992 89.3893 14.0827 89.08 14.264C88.7707 14.4453 88.528 14.704 88.352 15.04C88.176 15.3707 88.088 15.76 88.088 16.208C88.088 16.6507 88.176 17.04 88.352 17.376C88.528 17.7067 88.7707 17.9627 89.08 18.144C89.3893 18.3253 89.7387 18.416 90.128 18.416C90.5333 18.416 90.88 18.328 91.168 18.152C91.4613 17.9707 91.6853 17.712 91.84 17.376H92.712C92.504 17.9093 92.1733 18.3227 91.72 18.616C91.2667 18.904 90.736 19.048 90.128 19.048C89.6107 19.048 89.1387 18.928 88.712 18.688C88.2907 18.4427 87.9573 18.104 87.712 17.672C87.4667 17.24 87.344 16.752 87.344 16.208ZM95.7077 19.072C95.297 19.072 94.9237 18.9787 94.5877 18.792C94.257 18.6053 93.9957 18.3413 93.8037 18C93.617 17.6533 93.5237 17.2533 93.5237 16.8C93.5237 16.352 93.6197 15.9573 93.8117 15.616C94.009 15.2693 94.2757 15.0053 94.6117 14.824C94.9477 14.6373 95.3237 14.544 95.7397 14.544C96.1557 14.544 96.5317 14.6373 96.8677 14.824C97.2037 15.0053 97.4677 15.2667 97.6597 15.608C97.857 15.9493 97.9557 16.3467 97.9557 16.8C97.9557 17.2533 97.8544 17.6533 97.6517 18C97.4544 18.3413 97.185 18.6053 96.8437 18.792C96.5024 18.9787 96.1237 19.072 95.7077 19.072ZM95.7077 18.432C95.969 18.432 96.2144 18.3707 96.4437 18.248C96.673 18.1253 96.857 17.9413 96.9957 17.696C97.1397 17.4507 97.2117 17.152 97.2117 16.8C97.2117 16.448 97.1424 16.1493 97.0037 15.904C96.865 15.6587 96.6837 15.4773 96.4597 15.36C96.2357 15.2373 95.993 15.176 95.7317 15.176C95.465 15.176 95.2197 15.2373 94.9957 15.36C94.777 15.4773 94.601 15.6587 94.4677 15.904C94.3344 16.1493 94.2677 16.448 94.2677 16.8C94.2677 17.1573 94.3317 17.4587 94.4597 17.704C94.593 17.9493 94.769 18.1333 94.9877 18.256C95.2064 18.3733 95.4464 18.432 95.7077 18.432ZM99.6409 13.08V19H98.9129V13.08H99.6409ZM101.61 13.08V19H100.882V13.08H101.61ZM106.85 16.64C106.85 16.7787 106.842 16.9253 106.826 17.08H103.322C103.349 17.512 103.496 17.8507 103.762 18.096C104.034 18.336 104.362 18.456 104.746 18.456C105.061 18.456 105.322 18.384 105.53 18.24C105.744 18.0907 105.893 17.8933 105.978 17.648H106.762C106.645 18.0693 106.41 18.4133 106.058 18.68C105.706 18.9413 105.269 19.072 104.746 19.072C104.33 19.072 103.957 18.9787 103.626 18.792C103.301 18.6053 103.045 18.3413 102.858 18C102.672 17.6533 102.578 17.2533 102.578 16.8C102.578 16.3467 102.669 15.9493 102.85 15.608C103.032 15.2667 103.285 15.0053 103.61 14.824C103.941 14.6373 104.32 14.544 104.746 14.544C105.162 14.544 105.53 14.6347 105.85 14.816C106.17 14.9973 106.416 15.248 106.586 15.568C106.762 15.8827 106.85 16.24 106.85 16.64ZM106.098 16.488C106.098 16.2107 106.037 15.9733 105.914 15.776C105.792 15.5733 105.624 15.4213 105.41 15.32C105.202 15.2133 104.97 15.16 104.714 15.16C104.346 15.16 104.032 15.2773 103.77 15.512C103.514 15.7467 103.368 16.072 103.33 16.488H106.098ZM107.539 16.8C107.539 16.3467 107.63 15.952 107.811 15.616C107.993 15.2747 108.243 15.0107 108.563 14.824C108.889 14.6373 109.259 14.544 109.675 14.544C110.214 14.544 110.657 14.6747 111.003 14.936C111.355 15.1973 111.587 15.56 111.699 16.024H110.915C110.841 15.7573 110.694 15.5467 110.475 15.392C110.262 15.2373 109.995 15.16 109.675 15.16C109.259 15.16 108.923 15.304 108.667 15.592C108.411 15.8747 108.283 16.2773 108.283 16.8C108.283 17.328 108.411 17.736 108.667 18.024C108.923 18.312 109.259 18.456 109.675 18.456C109.995 18.456 110.262 18.3813 110.475 18.232C110.689 18.0827 110.835 17.8693 110.915 17.592H111.699C111.582 18.04 111.347 18.4 110.995 18.672C110.643 18.9387 110.203 19.072 109.675 19.072C109.259 19.072 108.889 18.9787 108.563 18.792C108.243 18.6053 107.993 18.3413 107.811 18C107.63 17.6587 107.539 17.2587 107.539 16.8ZM113.559 15.216V17.8C113.559 18.0133 113.604 18.1653 113.695 18.256C113.785 18.3413 113.943 18.384 114.167 18.384H114.703V19H114.047C113.641 19 113.337 18.9067 113.135 18.72C112.932 18.5333 112.831 18.2267 112.831 17.8V15.216H112.263V14.616H112.831V13.512H113.559V14.616H114.703V15.216H113.559ZM115.961 13.904C115.822 13.904 115.705 13.856 115.609 13.76C115.513 13.664 115.465 13.5467 115.465 13.408C115.465 13.2693 115.513 13.152 115.609 13.056C115.705 12.96 115.822 12.912 115.961 12.912C116.094 12.912 116.206 12.96 116.297 13.056C116.393 13.152 116.441 13.2693 116.441 13.408C116.441 13.5467 116.393 13.664 116.297 13.76C116.206 13.856 116.094 13.904 115.961 13.904ZM116.313 14.616V19H115.585V14.616H116.313ZM119.466 19.072C119.055 19.072 118.682 18.9787 118.346 18.792C118.015 18.6053 117.754 18.3413 117.562 18C117.375 17.6533 117.282 17.2533 117.282 16.8C117.282 16.352 117.378 15.9573 117.57 15.616C117.767 15.2693 118.034 15.0053 118.37 14.824C118.706 14.6373 119.082 14.544 119.498 14.544C119.914 14.544 120.29 14.6373 120.626 14.824C120.962 15.0053 121.226 15.2667 121.418 15.608C121.615 15.9493 121.714 16.3467 121.714 16.8C121.714 17.2533 121.612 17.6533 121.41 18C121.212 18.3413 120.943 18.6053 120.602 18.792C120.26 18.9787 119.882 19.072 119.466 19.072ZM119.466 18.432C119.727 18.432 119.972 18.3707 120.202 18.248C120.431 18.1253 120.615 17.9413 120.754 17.696C120.898 17.4507 120.97 17.152 120.97 16.8C120.97 16.448 120.9 16.1493 120.762 15.904C120.623 15.6587 120.442 15.4773 120.218 15.36C119.994 15.2373 119.751 15.176 119.49 15.176C119.223 15.176 118.978 15.2373 118.754 15.36C118.535 15.4773 118.359 15.6587 118.226 15.904C118.092 16.1493 118.026 16.448 118.026 16.8C118.026 17.1573 118.09 17.4587 118.218 17.704C118.351 17.9493 118.527 18.1333 118.746 18.256C118.964 18.3733 119.204 18.432 119.466 18.432ZM124.807 14.536C125.34 14.536 125.772 14.6987 126.103 15.024C126.433 15.344 126.599 15.808 126.599 16.416V19H125.879V16.52C125.879 16.0827 125.769 15.7493 125.551 15.52C125.332 15.2853 125.033 15.168 124.655 15.168C124.271 15.168 123.964 15.288 123.735 15.528C123.511 15.768 123.399 16.1173 123.399 16.576V19H122.671V14.616H123.399V15.24C123.543 15.016 123.737 14.8427 123.983 14.72C124.233 14.5973 124.508 14.536 124.807 14.536Z" fill="#00071A"/>
</svg>
